<svg width="24" height="24" viewBox="0 0 24 24" fill="none" xmlns="http://www.w3.org/2000/svg">
<path d="M19 7.19727C19 6.62182 18.9997 6.24974 18.9766 5.9668C18.9544 5.69595 18.9167 5.59521 18.8916 5.5459C18.7963 5.35882 18.6424 5.20581 18.4531 5.10938C18.4036 5.08414 18.3032 5.04561 18.0322 5.02344C17.7491 5.0003 17.3764 5 16.7998 5H9V19H16.8027C17.3779 19 17.7496 18.9996 18.0322 18.9766C18.3025 18.9545 18.4037 18.9167 18.4531 18.8916C18.6418 18.7955 18.796 18.6417 18.8916 18.4541C18.9167 18.4048 18.9544 18.3042 18.9766 18.0332C18.9997 17.7505 19 17.3791 19 16.8037V7.19727ZM16 10C16.5523 10 17 10.4477 17 11C17 11.5523 16.5523 12 16 12H12C11.4477 12 11 11.5523 11 11C11 10.4477 11.4477 10 12 10H16ZM16 7C16.5523 7 17 7.44772 17 8C17 8.55229 16.5523 9 16 9H12C11.4477 9 11 8.55229 11 8C11 7.44772 11.4477 7 12 7H16ZM5 16.7998C5 17.3764 5.00127 17.749 5.02442 18.0322C5.04661 18.3037 5.08417 18.4046 5.10938 18.4541C5.20555 18.6427 5.35841 18.7961 5.5459 18.8916C5.59521 18.9167 5.69595 18.9544 5.9668 18.9766C6.21608 18.9969 6.5343 18.9986 7 18.999V5C6.53499 5.00045 6.217 5.00406 5.96778 5.02442C5.69598 5.04662 5.59528 5.08422 5.5459 5.10938C5.35779 5.20524 5.20524 5.35779 5.10938 5.5459C5.08422 5.59528 5.04662 5.69598 5.02442 5.96778C5.00127 6.25124 5 6.62366 5 7.2002V16.7998ZM21 16.8037C21 17.3461 21.0011 17.8132 20.9697 18.1963C20.9374 18.5911 20.8655 18.9843 20.6729 19.3623C20.385 19.927 19.9251 20.3856 19.3613 20.6729C18.9833 20.8655 18.5902 20.9374 18.1953 20.9697C17.8123 21.001 17.345 21 16.8027 21H7.19727C6.6548 21 6.187 21.0011 5.80372 20.9697C5.40889 20.9375 5.01581 20.8655 4.6377 20.6729C4.0729 20.385 3.61446 19.926 3.32715 19.3623C3.13441 18.984 3.06259 18.5906 3.03028 18.1953C2.99893 17.8117 3 17.3434 3 16.7998V7.2002C3 6.65664 2.99893 6.18845 3.03028 5.80469C3.06258 5.40942 3.13437 5.01605 3.32715 4.6377C3.61475 4.07334 4.07334 3.61475 4.6377 3.32715C5.01605 3.13437 5.40942 3.06258 5.80469 3.03028C6.18845 2.99893 6.65664 3 7.2002 3H16.7998C17.3433 3 17.8118 2.99893 18.1953 3.03028C18.5905 3.06261 18.9832 3.13448 19.3613 3.32715C19.9246 3.61418 20.3847 4.07225 20.6729 4.6377C20.8655 5.01582 20.9375 5.40889 20.9697 5.80372C21.0011 6.187 21 6.6548 21 7.19727V16.8037Z" fill="#CCCCCC"/>
</svg>
