<svg width="24" height="24" viewBox="0 0 24 24" fill="none" xmlns="http://www.w3.org/2000/svg">
<path d="M9.00977 14C9.38977 14 9.76012 14.0303 10.1201 14.0703C10.28 14.0903 10.44 14.1097 10.5898 14.1396C10.7397 14.1596 10.8797 14.2005 11.0195 14.2305C11.07 14.2422 11.1207 14.2545 11.1709 14.2666C11.3321 14.3036 11.4911 14.3431 11.6475 14.3887C11.8575 14.448 12.0624 14.514 12.2598 14.5898C12.5098 14.6798 12.76 14.7904 13 14.9004C13.2799 15.0403 13.5499 15.1699 13.7998 15.3398H13.8096C15.0696 16.1798 16.0098 17.46 16.0098 19C16.0098 19.55 15.5598 20 15.0098 20H3.00977C2.45988 19.9999 2.00977 19.5499 2.00977 19C2.00977 17.46 2.94996 16.1798 4.20996 15.3398C5.4799 14.4899 7.17988 14 9.00977 14ZM15.5 14C17.3299 14 19.0298 14.4899 20.2998 15.3398C21.5598 16.1798 22.5 17.46 22.5 19C22.5 19.55 22.05 20 21.5 20H17.7412C17.5269 20 17.3815 19.7807 17.4316 19.5723C17.4756 19.3896 17.5 19.1994 17.5 19C17.5 17.2286 16.3797 15.6181 15.1729 14.5449C14.9668 14.3617 15.071 14.0073 15.3467 14.002C15.3976 14.001 15.4486 14 15.5 14ZM9.00977 3C9.32977 3 9.6402 3.03961 9.9502 3.09961C9.9735 3.10427 9.99625 3.11177 10.0195 3.11719C10.0794 3.1309 10.1379 3.14613 10.1953 3.16309L10.2354 3.17383C10.2369 3.1743 10.2386 3.17434 10.2402 3.1748C10.3419 3.20551 10.4423 3.23867 10.54 3.26953C10.62 3.2995 10.7099 3.31966 10.7998 3.34961C11.0497 3.44956 11.2896 3.57005 11.5195 3.70996C11.5294 3.71982 11.5494 3.7302 11.5596 3.73047C11.7396 3.83549 11.9142 3.95723 12.083 4.0918L12.25 4.23047L12.4336 4.39355C12.6135 4.56227 12.783 4.74774 12.9404 4.9502L12.9805 5C13.0803 5.11986 13.1701 5.24984 13.25 5.38965C13.36 5.55957 13.4601 5.73978 13.54 5.92969C13.565 5.9747 13.5848 6.02014 13.6035 6.06641L13.6602 6.20996L13.7295 6.39062C13.751 6.45068 13.7713 6.51077 13.79 6.57129C13.83 6.69252 13.8647 6.81545 13.8896 6.94043C13.8994 6.98946 13.9097 7.08568 13.9102 7.08984C13.9249 7.17819 13.9363 7.26687 13.9473 7.35547C13.9762 7.5659 14 7.78268 14 8C14 7.78523 13.9776 7.57568 13.9492 7.36719C13.9747 7.57558 13.9902 7.78534 13.9902 8C13.9902 8.31 13.9504 8.61016 13.9004 8.91016C13.9004 8.95997 13.8898 9.00975 13.8799 9.05957C13.8299 9.30953 13.7404 9.55008 13.6504 9.79004C13.6104 9.88004 13.5703 9.98031 13.5303 10.0703C13.4503 10.2603 13.3502 10.4404 13.2402 10.6104C13.1603 10.7403 13.0697 10.87 12.9697 11C12.9597 11.0199 12.9397 11.0299 12.9297 11.0498C12.7198 11.3097 12.4901 11.5496 12.2402 11.7695C12.0303 11.9495 11.7998 12.1195 11.5498 12.2695C11.5398 12.2795 11.5198 12.29 11.5098 12.29C11.2798 12.43 11.04 12.5504 10.79 12.6504C10.7101 12.6804 10.6202 12.7005 10.5303 12.7305C10.4304 12.7654 10.3327 12.7974 10.2354 12.8262L9.94043 12.9004L9.71191 12.9453C9.48025 12.9833 9.24011 13 9 13C6.24 13 4 10.76 4 8C4 5.24008 6.23987 3.00013 9.00977 3ZM15.5 3C18.26 3 20.5 5.24 20.5 8C20.5 10.76 18.26 13 15.5 13C14.9769 13 14.4771 12.9056 14.0059 12.748C13.8042 12.6805 13.7537 12.4249 13.8936 12.2646C14.8863 11.128 15.5 9.63875 15.5 8C15.5 6.36006 14.8937 4.8691 13.8936 3.72461C13.7541 3.56437 13.8049 3.30948 14.0068 3.24316C14.4779 3.08851 14.9771 3.00001 15.5 3ZM10.208 12.8389C10.1194 12.8657 10.0312 12.892 9.94043 12.9102C10.0302 12.8922 10.1191 12.8653 10.208 12.8389ZM10.5303 12.7402C10.4257 12.7733 10.317 12.8065 10.208 12.8389C10.3143 12.8067 10.4212 12.7729 10.5303 12.7402ZM12.083 11.9082C11.9144 12.0426 11.7404 12.1646 11.5605 12.2695C11.7478 12.1572 11.9241 12.0339 12.0889 11.9033L12.083 11.9082ZM12.9404 11.0498C12.7305 11.3097 12.4999 11.5596 12.25 11.7695C12.4999 11.5496 12.7305 11.3097 12.9404 11.0498ZM13.25 10.6104C13.1701 10.7502 13.0803 10.8801 12.9805 11C13.0803 10.8702 13.1701 10.7402 13.25 10.6104ZM13.54 10.0703C13.4601 10.2602 13.36 10.4304 13.25 10.6104C13.36 10.4404 13.4501 10.2602 13.54 10.0703ZM14 8C14 8.31 13.9702 8.61016 13.9102 8.91016C13.9602 8.61016 14 8.31 14 8ZM11.5605 3.71973C11.8004 3.85966 12.0301 4.02985 12.25 4.21973C12.0401 4.03984 11.8104 3.86965 11.5605 3.71973Z" fill="#1A1A1A"/>
</svg>
