<svg width="18" height="18" viewBox="0 0 18 18" fill="none" xmlns="http://www.w3.org/2000/svg">
<path d="M14.3628 15.7505C14.3628 15.0141 13.8829 14.2511 12.9045 13.6396C11.9351 13.0338 10.5565 12.6377 9 12.6377C7.44355 12.6377 6.06485 13.0338 5.09546 13.6396C4.11708 14.2511 3.63721 15.0141 3.63721 15.7505C3.63721 16.1026 3.35208 16.3877 3 16.3877C2.64792 16.3877 2.36279 16.1026 2.36279 15.7505C2.36279 14.4159 3.22634 13.3043 4.41943 12.5586C5.62161 11.8072 7.24278 11.3633 9 11.3633C10.7572 11.3633 12.3784 11.8072 13.5806 12.5586C14.7737 13.3043 15.6372 14.4159 15.6372 15.7505C15.6372 16.1026 15.3521 16.3877 15 16.3877C14.6479 16.3877 14.3628 16.1026 14.3628 15.7505ZM12.1128 6.00049C12.1128 4.2815 10.719 2.8877 9 2.8877C7.28101 2.8877 5.88721 4.2815 5.88721 6.00049C5.88721 7.71947 7.28101 9.11328 9 9.11328C10.719 9.11328 12.1128 7.71947 12.1128 6.00049ZM13.3872 6.00049C13.3872 8.42364 11.4232 10.3877 9 10.3877C6.57685 10.3877 4.61279 8.42364 4.61279 6.00049C4.61279 3.57734 6.57685 1.61328 9 1.61328C11.4232 1.61328 13.3872 3.57734 13.3872 6.00049Z" fill="#1A1A1A"/>
</svg>
